<svg xmlns="http://www.w3.org/2000/svg" width="218" height="18" viewBox="0 0 218 18">
    <path fill="#FFF" fill-rule="evenodd" d="M15.76 17h-3.504l-1.248-3.792h-5.28L4.528 17H.904L6.472.968h3.912L15.76 17zm-5.568-6.408l-1.8-6.312-1.848 6.312h3.648zM36.016 17V.968H32.56V12.2L25.456.968h-3.768V17h3.408V5.792L32.224 17h3.792zm6.888-8.064c.024 6.552 3.6 8.304 7.656 8.304 1.68 0 3.456-.168 5.208-.744V9.128h-3.216v5.28c-.696.072-1.296.072-1.824.072-2.352 0-4.176-1.368-4.176-5.616 0-4.32 2.184-5.544 4.8-5.544 1.056 0 2.184.192 3.264.552l.552-2.568A14.853 14.853 0 0 0 51.016.68c-4.032 0-7.944 1.944-8.112 8.256zm32.376 2.16V.992h-3.6v9.984c0 2.256-.288 3.432-2.664 3.432-2.496 0-2.736-1.32-2.736-3.432V.992h-3.6v10.104c0 4.248 1.752 6.192 6.288 6.192 4.776 0 6.312-2.064 6.312-6.192zm17.664 3.12h-6.696V.968h-3.576V17h10.272v-2.784zM112.384 17h-3.504l-1.248-3.792h-5.28l-1.2 3.792h-3.624L103.096.968h3.912L112.384 17zm-5.568-6.408l-1.8-6.312-1.848 6.312h3.648zM118.312 17V1.256C119.68.992 121.648.8 123.568.8c3.264 0 6.432.864 6.432 5.376 0 2.808-1.296 4.392-3.24 5.016L130.72 17h-3.84l-3.384-5.496a13.558 13.558 0 0 1-1.632-.264V17h-3.552zm3.552-8.04c.552.072 1.128.144 1.68.144 1.656 0 3.048-.456 3.048-2.832 0-2.4-1.56-2.928-3.024-2.928-.624 0-1.224.024-1.704.144V8.96zm13.728 7.344c1.248.624 2.832 1.008 4.344 1.008 2.928 0 5.88-1.296 6.288-4.752.312-2.52-1.272-3.624-3.96-4.68-1.728-.648-3.192-1.296-2.976-3.072.24-1.896 1.824-2.424 3.432-2.424 1.176 0 2.568.312 3.384.552l.648-1.68c-1.176-.312-2.544-.552-3.816-.552-2.736 0-5.424.984-5.856 4.416-.312 2.52 1.344 3.528 3.912 4.512 1.8.672 3.288 1.272 3.048 3.168-.264 2.064-1.944 2.688-3.72 2.688-1.44 0-3.048-.504-4.056-.984l-.672 1.8zm17.592-13.56h4.584L156.04 17h1.992l1.728-14.256h4.536l.24-1.776h-11.112l-.24 1.776zM176.728.632c5.232 0 5.976 3.864 5.448 8.352-.552 4.44-2.304 8.352-7.56 8.352-5.472 0-5.952-3.864-5.4-8.352.528-4.464 2.304-8.352 7.512-8.352zm-1.872 15.048c3.6 0 4.728-2.928 5.208-6.696.456-3.816.048-6.744-3.552-6.744-3.576 0-4.752 2.928-5.208 6.744-.48 3.768-.024 6.696 3.552 6.696zM197.32 17l-3.504-6.216h-.336c-.696 0-1.344-.048-1.992-.168L190.72 17h-2.064L190.6 1.136C191.848.944 193.192.8 194.608.8c3.12 0 6.192.624 5.688 4.8-.36 2.856-2.112 4.32-4.248 4.872L199.816 17h-2.496zm-4.848-14.4l-.768 6.336c.576.12 1.296.216 2.04.216 1.992 0 4.128-.768 4.44-3.432.36-2.856-1.608-3.264-3.768-3.264-.696 0-1.296.048-1.944.144zm23.832 12.624h-7.368l.672-5.592h6.72l.216-1.776h-6.72l.624-5.112h7.104l.24-1.776h-9.144L206.68 17h9.408l.216-1.776z"/>
</svg>
